<?xml version="1.0" encoding="UTF-8"?>
<svg width="36px" height="37px" viewBox="0 0 36 37" version="1.1" xmlns="http://www.w3.org/2000/svg" xmlns:xlink="http://www.w3.org/1999/xlink">
    <!-- Generator: Sketch 63.1 (92452) - https://sketch.com -->
    <title>Group 18</title>
    <desc>Created with Sketch.</desc>
    <g id="Page-1" stroke="none" stroke-width="1" fill="none" fill-rule="evenodd">
        <g id="Group-18" fill="#000000" fill-rule="nonzero">
            <path d="M9.54342019,30.9573275 C9.95146917,29.8409268 10.4672643,27.704437 8.96526954,26.6616392 C8.96526954,26.344385 8.87447473,25.9306188 8.5345252,25.6076206 C7.89427956,25.0012911 6.68136008,24.9558937 4.84515971,25.4829097 C4.72619273,25.3412407 4.55034041,25.1995717 4.28970442,25.1259954 C3.68337492,24.944673 2.90694375,25.2392251 1.98884356,25.9929342 C0.0732962543,27.5627746 0.38507362,29.7728674 0.742001264,30.9515835 C0.146885865,31.1271687 -0.147646232,31.8754277 0.0732962543,32.6630863 C0.266099965,33.3545 0.787351913,33.8021958 1.32013855,33.8079398 C2.00580831,35.2643034 3.48508104,36.222077 5.12852445,36.222077 C6.7662239,36.222077 8.25097343,35.2700474 8.93691035,33.8079398 C9.48662835,33.8021999 9.99092891,33.3544934 10.1837527,32.6630863 C10.3992584,31.8809045 10.1159204,31.1498841 9.54350702,30.9573275 L9.54342019,30.9573275 Z M2.52776156,26.6446744 C3.45160572,25.8852013 3.89355748,25.8966893 4.03521982,25.9363628 C4.18810961,25.9760195 4.23924431,26.1064711 4.2449816,26.1119479 C4.31307436,26.3329305 4.55101499,26.4576414 4.77774152,26.389542 C7.04447251,25.6869075 7.74730739,26.0381112 7.94560794,26.2194336 C8.17807176,26.4346789 8.10423503,26.7691516 8.10423503,26.7803657 C8.0588383,26.9674321 8.1438918,27.1657127 8.31399681,27.2565075 C9.31718791,27.7950047 9.1981675,29.0981847 8.93180757,30.078667 L8.74474115,29.3703553 C8.68812564,29.1605936 8.48410516,29.0304058 8.2743367,29.058578 C4.48318271,29.5798566 2.59034412,28.4183323 2.573179,28.4068511 C2.46542612,28.3332748 2.32950108,28.3218002 2.20479013,28.3614543 C2.08007919,28.4011111 1.98380757,28.5031234 1.94415414,28.6220903 L1.42287548,30.1295486 C1.22432779,29.1099271 1.25825061,27.6875597 2.52778828,26.6446952 L2.52776156,26.6446744 Z M9.36776156,32.4251791 C9.27148995,32.7708726 9.06172817,32.935237 8.96545655,32.9464577 C8.94849781,32.935239 8.93153974,32.9237597 8.92579978,32.9180198 C8.8180469,32.8444435 8.68212186,32.8272249 8.55741091,32.8671442 C8.43269996,32.906801 8.33642835,33.0030759 8.29103095,33.1277802 C7.8206265,34.4594462 6.54559867,35.3548377 5.1289085,35.3548377 C3.71221833,35.3548377 2.43692334,34.4594462 1.96678605,33.1277802 C1.92138932,33.0030693 1.82511703,32.9067976 1.70040609,32.8671442 C1.65500935,32.8501855 1.60961128,32.8444462 1.56447436,32.8444462 C1.47942353,32.8444462 1.40010998,32.8671442 1.32653373,32.9180224 C1.31531496,32.9237622 1.3038357,32.9349812 1.28687696,32.9464604 C1.19060535,32.9295017 0.986580855,32.7708753 0.890309241,32.4251818 C0.782556366,32.0398348 0.913007275,31.7791921 0.986580855,31.7564767 C0.997799631,31.7507369 1.05467362,31.7622165 1.13398716,31.8245695 C1.24174004,31.9096203 1.38340906,31.9377992 1.51359681,31.8981458 C1.64404505,31.858489 1.75153744,31.762214 1.79693484,31.6317658 L2.58459347,29.3650348 C3.37799607,29.7107283 5.17452297,30.2716471 8.01364727,29.948669 L8.45013559,31.5977895 C8.4840524,31.7337213 8.5918046,31.8472114 8.72772965,31.8926088 C8.86366137,31.9380056 9.01106768,31.9153069 9.12429737,31.8245161 C9.19787362,31.7679006 9.24900831,31.7509398 9.27170368,31.7564233 C9.34501945,31.7733821 9.46972371,32.0340174 9.36771481,32.4251283 L9.36776156,32.4251791 Z" id="Shape"></path>
            <path d="M5.81451481,33.1046373 C5.43490516,33.484247 4.81706768,33.484247 4.44297492,33.1046373 C4.27861054,32.940273 4.00648661,32.940273 3.84238271,33.1046373 C3.67801833,33.2690017 3.67801833,33.5411257 3.84238271,33.7052295 C4.199297,34.0621438 4.664238,34.2379895 5.12889848,34.2379895 C5.59355896,34.2379895 6.06396342,34.0624043 6.41541425,33.7052295 C6.57977863,33.5408652 6.57977863,33.2687412 6.41541425,33.1046373 C6.25104987,32.940273 5.97892594,32.940273 5.81456156,33.1046373 L5.81451481,33.1046373 Z" id="Path"></path>
            <path d="M35.2717319,30.9573275 C35.6797809,29.8351828 36.195576,27.704437 34.6935812,26.6616392 C34.6935812,26.344385 34.6027864,25.9248748 34.2628369,25.6076206 C33.6225912,25.0012911 32.4096718,24.9558937 30.5734714,25.4829097 C30.4545044,25.3412407 30.2786521,25.1995717 30.0180161,25.1259954 C29.4116866,24.944673 28.6352554,25.2392251 27.7171553,25.9929342 C25.8016079,27.5627746 26.1133853,29.7728674 26.470313,30.9515835 C26.1642796,31.0423783 25.920595,31.297277 25.8016079,31.6487412 C25.699599,31.9547746 25.699599,32.3116889 25.7958682,32.6631531 C25.9886719,33.3545668 26.5041799,33.8022626 27.0427105,33.8080065 C27.7283802,35.2643702 29.2131298,36.2221438 30.8510964,36.2221438 C32.4887958,36.2221438 33.9735454,35.2701141 34.6594823,33.8080065 C35.2092003,33.8022667 35.7135008,33.3545602 35.9063246,32.6631531 C36.1275676,31.8809713 35.8442303,31.1499509 35.2718162,30.9573943 L35.2717319,30.9573275 Z M28.2614165,26.6446744 C29.1852606,25.8852013 29.6272124,25.8966893 29.7688747,25.9363628 C29.9217645,25.9760195 29.9728992,26.1064711 29.9786365,26.1119479 C30.0467293,26.3329305 30.2846699,26.4576414 30.5113964,26.389542 C32.7781274,25.6869075 33.4809623,26.0381112 33.6792629,26.2194336 C33.9117267,26.4346789 33.8378899,26.7691516 33.8378899,26.7803657 C33.7924932,26.9674321 33.8775467,27.1657127 34.0476517,27.2565075 C35.0508428,27.8004815 34.9318224,29.0981847 34.6654625,30.078667 L34.4783961,29.3703553 C34.4217806,29.1605936 34.2177601,29.0304058 34.0079916,29.058578 C30.2168376,29.5798566 28.323999,28.4183323 28.3068339,28.4068511 C28.199081,28.3332748 28.063156,28.3218002 27.938445,28.3614543 C27.8137341,28.4011111 27.7174625,28.5031234 27.6778091,28.6220903 L27.1565304,30.1295486 C26.9522454,29.1099271 26.986422,27.6875597 28.2614432,26.6446952 L28.2614165,26.6446744 Z M35.0960732,32.4251791 C34.9998016,32.7708726 34.7900399,32.935237 34.6937682,32.9464577 C34.6768095,32.935239 34.6598514,32.9237597 34.6541115,32.9180198 C34.5463586,32.8444435 34.4104335,32.8272249 34.2857226,32.8671442 C34.1610117,32.906801 34.06474,33.0030759 34.0193426,33.1277802 C33.5489382,34.4594462 32.2739104,35.3548377 30.8572202,35.3548377 C29.44053,35.3548377 28.165235,34.4594462 27.6950977,33.1277802 C27.649701,33.0030693 27.5534287,32.9067976 27.4287178,32.8671442 C27.383321,32.8501855 27.337923,32.8444462 27.2927861,32.8444462 C27.2077352,32.8444462 27.1284217,32.8671442 27.0548454,32.9180224 C27.0436266,32.9237622 27.0321474,32.9349812 27.0151886,32.9464604 C26.918917,32.9295017 26.7148925,32.7708753 26.6186209,32.4251818 C26.5677454,32.2381153 26.5620054,32.0510489 26.6128811,31.9093799 C26.6413191,31.8185851 26.6864574,31.7677109 26.71489,31.7564901 C26.737588,31.7507503 26.7884663,31.7677089 26.8622963,31.8245829 C26.9700492,31.9096337 27.1117182,31.9378126 27.241906,31.8981591 C27.3723542,31.8585023 27.4798466,31.7622274 27.525244,31.6317792 L28.3129026,29.3650482 C29.1063052,29.7107417 30.9028321,30.2716604 33.7419564,29.9486823 L34.1784447,31.5978029 C34.2123615,31.7337346 34.3201138,31.8472248 34.4560388,31.8926222 C34.5919705,31.9380189 34.7393768,31.9153202 34.8526065,31.8245294 C34.9261828,31.7679139 34.9830548,31.7509532 35.0000128,31.7564367 C35.0733286,31.7733954 35.2035164,32.0340307 35.096024,32.4251417 L35.0960732,32.4251791 Z" id="Shape"></path>
            <path d="M31.5428265,33.1046373 C31.1744376,33.4730262 30.5341586,33.4730262 30.1712866,33.1046373 C30.0069222,32.940273 29.7347983,32.940273 29.5706944,33.1046373 C29.40633,33.2690017 29.40633,33.5411257 29.5706944,33.7052295 C29.9163879,34.0509231 30.369841,34.2379895 30.8572102,34.2379895 C31.3445794,34.2379895 31.8034959,34.0509231 32.1437259,33.7052295 C32.3080903,33.5408652 32.3080903,33.2687412 32.1437259,33.1046373 C31.9793616,32.940273 31.7129816,32.940273 31.5428732,33.1046373 L31.5428265,33.1046373 Z" id="Path"></path>
            <path d="M17.9362959,25.06909 C14.4170454,25.06909 11.5779211,28.8150937 11.5779211,31.9151012 C11.5779211,34.1197171 12.9946113,35.6441401 15.5730528,36.2050455 C15.6014908,36.2107853 15.6354076,36.2162643 15.6638476,36.2162643 C15.7546425,36.2162643 15.8394328,36.1878263 15.9132695,36.1369507 C16.0095412,36.068858 16.0718966,35.9556283 16.0888547,35.8366546 L16.0945945,35.7742998 C16.6555266,36.0464171 17.2845314,36.2050442 17.9362716,36.2050442 C18.5879985,36.2050442 19.2112995,36.0464171 19.772472,35.7742998 L19.772472,35.7800396 L19.7782118,35.8423944 C19.7894306,35.9613614 19.8575254,36.0691142 19.953797,36.1372137 C20.0500686,36.2053131 20.1747796,36.2334853 20.2937465,36.2053065 C22.8721881,35.6443744 24.288887,34.1253881 24.288887,31.9153621 C24.294618,28.8096107 21.4609747,25.069351 17.9362475,25.069351 L17.9362959,25.06909 Z M14.7569415,33.0992941 C14.7115448,32.9688459 14.6095352,32.8725743 14.4793475,32.8329141 C14.4396907,32.8216954 14.4000339,32.8159554 14.3546365,32.8159554 C14.2638417,32.8159554 14.1733141,32.8443934 14.0997378,32.9010062 C14.093998,32.9067461 14.0827791,32.912225 14.0770398,32.917965 C13.9750309,32.895267 13.7710064,32.7196778 13.6747348,32.390949 C13.5954212,32.113355 13.640818,31.8866284 13.6974328,31.7846195 C13.7143915,31.7561815 13.7370896,31.7222647 13.7655256,31.7165268 C13.7824843,31.7107869 13.8336183,31.7222665 13.8959738,31.7731423 C14.0433801,31.8978532 14.2528881,31.909074 14.4117757,31.8015803 C14.4571724,31.7676635 15.4997237,31.0478511 16.3781504,29.20043 C17.0753081,30.0222853 18.70172,31.4785821 21.6370892,31.8582185 C21.7448421,31.8694373 21.869553,31.8412598 21.9543434,31.7789049 C22.050615,31.7108122 22.0960124,31.7108122 22.1129705,31.7108122 C22.192284,31.7392502 22.3000369,32.0168456 22.2037653,32.3852612 C22.1129705,32.7082526 21.9146899,32.878361 21.7957163,32.9065398 C21.6937074,32.821489 21.5577757,32.7875729 21.4273274,32.815745 C21.2856584,32.8496618 21.1666914,32.9516767 21.121294,33.0878623 C20.6396755,34.4309495 19.358897,35.3321517 17.9364629,35.3321517 C16.5080176,35.3436316 15.2273126,34.4425042 14.7569081,33.0993502 L14.7569415,33.0992941 Z M20.6052384,35.2472718 L20.6052384,35.2360531 C21.0868569,34.8449622 21.4836651,34.3518824 21.7613126,33.7739455 C22.2713705,33.7739455 22.8268191,33.3204991 23.0251196,32.6178713 C23.2348814,31.8187247 22.928848,31.0595188 22.3337059,30.9006245 L22.3224871,30.9006245 C22.0788092,30.8382697 21.8408686,30.8779265 21.6026875,31.0083774 C18.5426207,30.5664123 17.1314073,28.8549228 16.7744797,28.3391009 C16.7009035,28.2258713 16.66125,28.1577785 16.6555127,28.1520345 C16.5704619,28.0103655 16.4118348,27.9253147 16.2532077,27.9422727 C16.0888433,27.9592315 15.9471743,28.0669837 15.8905561,28.2198668 C15.8508994,28.3276197 15.8112426,28.4238913 15.7546244,28.5428583 C15.165253,29.9029102 14.4681086,30.6454186 14.1338897,30.951452 C13.9468233,30.8778757 13.737322,30.8606572 13.5502556,30.9117952 C13.3065777,30.97415 13.0968092,31.144259 12.9608842,31.3821996 C12.7680804,31.7221492 12.7284203,32.1813462 12.8588753,32.6402627 C13.0571625,33.3428972 13.6011164,33.8020809 14.1169383,33.790593 C14.3890556,34.3742271 14.7913873,34.8673202 15.2787565,35.2584445 C13.8847751,34.8561395 12.4281443,33.94922 12.4281443,31.9204631 C12.4281443,29.2230011 14.9669791,25.9246931 17.936545,25.9246931 C20.9061109,25.9246931 23.4449458,29.2230011 23.4449458,31.9204631 C23.4446849,33.9322553 21.9995357,34.8391347 20.6052871,35.2472238 L20.6052384,35.2472718 Z" id="Shape"></path>
            <path d="M18.627576,33.1159917 C18.2479664,33.4956013 17.6301289,33.4956013 17.2505593,33.1159917 C17.086195,32.9516273 16.814071,32.9516273 16.6499671,33.1159917 C16.4856027,33.2803561 16.4856027,33.55248 16.6499671,33.7165839 C17.0068814,34.0734982 17.4718224,34.2493438 17.9419597,34.2493438 C18.4123642,34.2493438 18.8770246,34.0737587 19.2339523,33.7165839 C19.3983167,33.5522195 19.3983167,33.2800956 19.2339523,33.1159917 C19.0695879,32.9518878 18.7919872,32.9518878 18.6276228,33.1159917 L18.627576,33.1159917 Z" id="Path"></path>
            <path d="M6.65874486,23.5162807 C6.89120868,23.5162807 7.08375191,23.3234106 7.08375191,23.0912073 L7.08375191,20.2575598 C7.08375191,19.8664689 7.40100609,19.5492481 7.7920636,19.5492481 L17.5113957,19.5492481 L17.5113957,23.0912073 C17.5113957,23.3236711 17.7041994,23.5162807 17.9364027,23.5162807 C18.1688666,23.5162807 18.3614098,23.3234106 18.3614098,23.0912073 L18.3614098,19.5492481 L28.1936176,19.5492481 C28.5847085,19.5492481 28.9019293,19.8665023 28.9019293,20.2575598 L28.9019293,23.0912073 C28.9019293,23.3236711 29.094733,23.5162807 29.3269363,23.5162807 C29.5594002,23.5162807 29.7519434,23.3234106 29.7519434,23.0912073 L29.7519434,20.2575598 C29.7519434,19.3960978 29.0547857,18.6992073 28.1935909,18.6992073 L20.1179694,18.6992073 L20.1179694,17.8491665 L21.3929972,17.8491665 C21.625461,17.8491665 21.8180042,17.6563628 21.8180042,17.4241594 C21.8180042,17.1916956 21.6252005,16.9991524 21.3929972,16.9991524 L20.6846855,16.9991524 L20.6846855,15.5824622 L21.3932643,15.5822013 C21.6257282,15.5822013 21.8182714,15.3893976 21.8182714,15.1571943 C21.8182714,14.9247304 21.6254677,14.7321872 21.3932643,14.7321872 L20.7075946,14.7321872 C20.8153475,13.570369 21.3593215,12.5106065 22.2489823,11.7741093 C23.7791493,10.5045583 24.6518989,8.64017238 24.6518989,6.65683286 C24.6518989,4.76399427 23.8415315,2.95050262 22.4248413,1.68669557 C21.013628,0.422888517 19.1095686,-0.172213524 17.2110528,0.0433189435 C14.241487,0.38326848 11.793487,2.77491078 11.3966187,5.73305549 C11.0793645,8.06210187 11.9747694,10.3347772 13.7825705,11.8138496 C14.6440324,12.5164841 15.1710751,13.5650258 15.2785408,14.737998 L14.5926039,14.737998 C14.36014,14.737998 14.1675968,14.9308017 14.1675968,15.163005 C14.1675968,15.3954689 14.3604005,15.5880121 14.5926039,15.5880121 L15.3009155,15.5880121 L15.3009155,17.0047022 L14.5926039,17.0047022 C14.36014,17.0047022 14.1675968,17.197506 14.1675968,17.4297093 C14.1675968,17.6621731 14.3604005,17.8547163 14.5926039,17.8547163 L15.8676317,17.8547163 L15.8676317,18.7047572 L7.79201017,18.7047572 C6.9305482,18.7047572 6.2336574,19.4019149 6.2336574,20.2631097 L6.2336574,23.0967572 C6.23339678,23.323477 6.42620089,23.5162807 6.65866471,23.5162807 L6.65874486,23.5162807 Z M14.3202662,11.1506485 C12.739205,9.8641327 11.9627671,7.88079318 12.2403478,5.84629226 C12.5860413,3.2678507 14.7225445,1.18218836 17.3122736,0.887642906 C18.9953237,0.694839196 20.6105816,1.20489708 21.8629007,2.32129782 C23.0982551,3.42073382 23.8066335,5.00179504 23.8066335,6.6566596 C23.8066335,8.38512714 23.0416836,10.011539 21.7097504,11.116719 C20.6272792,12.0121104 19.9643181,13.315591 19.8565853,14.7322811 L16.1390343,14.7322811 C16.0260651,13.304103 15.3800955,12.0121104 14.320333,11.1506485 L14.3202662,11.1506485 Z M16.1507226,15.5823219 L19.8343441,15.5823219 L19.8343441,16.9990121 L16.1504554,16.9990121 L16.1507226,15.5823219 Z M16.7173987,17.8492533 L19.2677215,17.8492533 L19.2677215,18.6992941 L16.7173987,18.6992941 L16.7173987,17.8492533 Z" id="Shape"></path>
            <path d="M17.8741809,2.10609931 C17.8457429,1.87363549 17.6362402,1.70953159 17.4037764,1.73196647 C15.1936836,1.98138836 13.374448,3.76072343 13.0799026,5.95959541 C13.0459858,6.19205923 13.2103508,6.40729782 13.4425541,6.43573716 C13.4595129,6.43573716 13.4822109,6.44147692 13.4991696,6.44147692 C13.7089314,6.44147692 13.8902606,6.28858712 13.9184327,6.07308805 C14.1621107,4.25385243 15.669609,2.78626801 17.4943214,2.57647951 C17.7325225,2.54804152 17.9023704,2.33853888 17.8741915,2.10607506 L17.8741809,2.10609931 Z" id="Path"></path>
        </g>
    </g>
</svg>