<?xml version="1.0" encoding="UTF-8"?>
<svg width="36px" height="32px" viewBox="0 0 36 32" version="1.1" xmlns="http://www.w3.org/2000/svg" xmlns:xlink="http://www.w3.org/1999/xlink">
    <!-- Generator: Sketch 63.1 (92452) - https://sketch.com -->
    <title>Group 10</title>
    <desc>Created with Sketch.</desc>
    <g id="Page-1" stroke="none" stroke-width="1" fill="none" fill-rule="evenodd">
        <g id="Group-10" fill="#000000" fill-rule="nonzero">
            <path d="M21.2505714,29.5857857 L14.6841429,29.5857857 C13.9575714,29.5857857 13.3208571,29.0936 13.1333571,28.3905 C13.10992,28.29675 13.0552286,28.2186286 12.9810143,28.1600286 C12.9067929,28.101435 12.8130429,28.0701857 12.7192929,28.0701857 L2.71143571,28.0701857 L2.71143571,9.42161429 C2.71143571,8.62475714 3.35987143,7.97632857 4.15286429,7.97632857 L13.9614357,7.97632857 L13.9614357,19.1949 L21.9692929,19.1949 L21.9692929,7.9799 L31.7778643,7.9799 C32.5747214,7.9799 33.22315,8.62833571 33.22315,9.42518571 L33.22315,28.0773286 L23.2195786,28.0773286 C23.0242643,28.0773286 22.8523929,28.2101429 22.8055143,28.3976429 C22.7156714,28.7374857 22.5125429,29.0460786 22.2352,29.257 C21.95395,29.4679357 21.6062929,29.5851286 21.2508429,29.5851286 L21.2505714,29.5857857 Z M3.88342857,26.9022143 L12.7191429,26.9022143 C13.0707071,26.9022143 13.4183643,27.0194 13.6957143,27.2342429 C13.9730643,27.4490857 14.1761857,27.7537714 14.2660286,28.0936 C14.31681,28.2811 14.4886857,28.4139143 14.684,28.4139143 L21.2504286,28.4139143 C21.3480857,28.4139143 21.4379286,28.3826643 21.51215,28.3240714 C21.5902786,28.2654779 21.6410571,28.1834429 21.6644929,28.0936 C21.8480857,27.3904714 22.4847786,26.8983143 23.2152786,26.8983143 L32.0509929,26.8983143 L32.0509929,9.42188571 C32.0509929,9.27345 31.9299,9.14845 31.7775571,9.14845 L23.1447,9.14845 L23.1447,20.3670214 L12.7932714,20.3670214 L12.7932714,9.15202143 L4.15255714,9.15202143 C4.00412143,9.15202143 3.88302857,9.27311429 3.88302857,9.42545714 L3.88342857,26.9022143 Z" id="Shape"></path>
            <path d="M33.5391429,31.9800714 L2.39842857,31.9800714 C1.07421429,31.9800714 -1.62409768e-14,30.9019286 -1.62409768e-14,29.5816429 L-1.62409768e-14,28.1480714 C-1.62409768e-14,27.4605714 0.558592857,26.9058571 1.24221429,26.9058571 L12.7186429,26.9058571 C13.4452143,26.9058571 14.0819286,27.3980429 14.2694286,28.1011429 C14.32021,28.2886429 14.4920857,28.4214571 14.6834929,28.4214571 L21.2499214,28.4214571 C21.4452357,28.4214571 21.6171071,28.2886429 21.6678929,28.1011429 C21.8514857,27.3980143 22.4881786,26.9058571 23.2186786,26.9058571 L34.6951071,26.9058571 C35.3826071,26.9058571 35.9373214,27.46445 35.9373214,28.1480714 L35.9373214,29.5816429 C35.9373214,30.9019286 34.8591786,31.9800714 33.5388929,31.9800714 L33.5391429,31.9800714 Z M1.242,28.0737857 C1.20293714,28.0737857 1.17168714,28.1050357 1.17168714,28.1440986 L1.17168714,29.57767 C1.17168714,30.2534486 1.72246571,30.8042414 2.39825857,30.8042414 L33.5346871,30.8042414 C34.2104657,30.8042414 34.7612586,30.2534629 34.7612586,29.57767 L34.7612586,28.1440986 C34.7612586,28.1050357 34.7300086,28.0737857 34.6909464,28.0737857 L23.2180893,28.0737857 C23.022775,28.0737857 22.8509036,28.2066 22.804025,28.3941 C22.6204321,29.0972286 21.9837393,29.5893857 21.2532393,29.5893857 L14.6829536,29.5893857 C13.9563821,29.5893857 13.3196679,29.0972 13.1321679,28.3941 C13.0813864,28.2066 12.9095107,28.0737857 12.7181036,28.0737857 L1.242,28.0737857 Z" id="Shape"></path>
            <path d="M23.1448571,20.3707857 L12.7934286,20.3707857 L12.7934286,5.92578571 C12.7934286,5.17971429 13.1098357,4.46092857 13.6606429,3.95314286 L17.9692143,-3.85723199e-14 L22.2777857,3.957 C22.8285643,4.46090714 23.145,5.17964286 23.145,5.92571429 L23.1448571,20.3707857 Z M13.9648571,19.1989286 L21.9727143,19.1989286 L21.9727143,5.92535714 C21.9727143,5.50738571 21.7969357,5.10114286 21.4844357,4.81985714 L17.9687929,1.58935714 L14.45315,4.81985714 C14.1445571,5.10501429 13.9648571,5.50735714 13.9648571,5.92921429 L13.9648571,19.1989286 Z" id="Shape"></path>
            <path d="M13.9655714,19.4215 L8.18428571,19.4215 L8.18428571,14.2457143 C8.18428571,13.6558714 8.51241429,13.1246429 9.03585714,12.8629286 L13.9616429,10.3863571 L13.9616429,19.4213571 L13.9655714,19.4215 Z M9.35621429,18.24965 L12.7937143,18.24965 L12.7937143,12.2847857 L9.56714286,13.9097857 C9.43823571,13.9761921 9.36011429,14.1051 9.36011429,14.2457214 L9.36011429,18.24965 L9.35621429,18.24965 Z" id="Shape"></path>
            <path d="M27.7541429,19.4215 L21.9728571,19.4215 L21.9728571,10.3822143 L26.8986429,12.8587857 C27.4259857,13.1244143 27.7541429,13.6556429 27.7541429,14.2415714 L27.7541429,19.4215 Z M23.1447857,18.2496429 L26.5822857,18.2496429 L26.5822857,14.2457143 C26.5822857,14.1011857 26.5041571,13.9722786 26.3752571,13.9097786 L23.1486857,12.2847786 L23.1486857,18.2496429 L23.1447857,18.2496429 Z" id="Shape"></path>
            <polygon id="Path" points="15.6955714 21.4765 16.8674286 21.4765 16.8674286 25.496 15.6955714 25.496"></polygon>
            <polygon id="Path" points="19.0705714 21.4765 20.2424286 21.4765 20.2424286 23.7265 19.0705714 23.7265"></polygon>
            <path d="M20.3327143,7.18364286 L19.1608571,7.18364286 C19.1608571,6.92973571 18.9538286,6.72661429 18.7038286,6.72661429 L17.2351143,6.72661429 C16.9812071,6.72661429 16.7780857,6.93364286 16.7780857,7.18364286 L15.6062286,7.18364286 C15.6062286,6.28521429 16.3367286,5.55471429 17.2351571,5.55471429 L18.7038714,5.55471429 C19.6023,5.55471429 20.3328,6.28521429 20.3328,7.18364286 L20.3327143,7.18364286 Z" id="Path"></path>
        </g>
    </g>
</svg>