<?xml version="1.0" encoding="UTF-8"?>
<svg width="46px" height="38px" viewBox="0 0 46 38" version="1.1" xmlns="http://www.w3.org/2000/svg" xmlns:xlink="http://www.w3.org/1999/xlink">
    <!-- Generator: Sketch 63.1 (92452) - https://sketch.com -->
    <title>Group 12</title>
    <desc>Created with Sketch.</desc>
    <g id="Page-1" stroke="none" stroke-width="1" fill="none" fill-rule="evenodd" stroke-linecap="round" stroke-linejoin="round">
        <g id="Group-12" transform="translate(1.000000, 1.000000)" stroke="#000000" stroke-width="1.28571429">
            <polygon id="Path" points="43.6321839 28.0092397 43.6321839 24.4384308 -4.43074149e-13 24.4384308 -4.43074149e-13 28.0652585 21.8160919 35.6534644"></polygon>
            <polyline id="Path" points="4.46365052 24.4383192 4.46365052 21.9273484 8.36934473 20.4208664 8.36934473 24.4383192"></polyline>
            <polyline id="Path" points="8.36934473 20.4210338 8.36934473 15.1205604 13.1120292 13.3908958 13.1120292 24.4384308"></polyline>
            <polyline id="Path" points="13.1119734 13.3907842 16.3481758 14.0603318 16.3481758 24.4383192"></polyline>
            <polyline id="Path" points="16.34812 14.0603318 16.34812 2.51063603 20.3652381 6.39488462e-13 26.7259401 2.39921216 26.7259401 24.4384866"></polyline>
            <polyline id="Path" points="26.7261075 13.4465798 34.2585178 15.1205604 34.2585178 24.4384308"></polyline>
            <polyline id="Path" points="34.2585178 20.4210338 38.2759706 21.9275158 38.2759706 24.4384866"></polyline>
            <polyline id="Path" points="19.6400623 0.446197666 19.6400623 12.7770322 22.6530822 11.1591263 22.6530822 24.4384866"></polyline>
        </g>
    </g>
</svg>