<?xml version="1.0" encoding="UTF-8"?>
<svg width="38px" height="23px" viewBox="0 0 38 23" version="1.1" xmlns="http://www.w3.org/2000/svg" xmlns:xlink="http://www.w3.org/1999/xlink">
    <!-- Generator: Sketch 63.1 (92452) - https://sketch.com -->
    <title>Shape</title>
    <desc>Created with Sketch.</desc>
    <g id="Page-1" stroke="none" stroke-width="1" fill="none" fill-rule="evenodd">
        <path d="M0.441074714,15.682578 L4.60421047,15.7194929 L4.61992776,15.7194929 C5.5721538,15.7194929 6.38025836,14.9557973 6.40374211,13.9452886 L7.21565088,13.9524985 C6.84071554,14.8868886 7.05933394,15.9822278 7.83406376,16.6201912 C8.3401716,17.0369236 8.99142515,17.2235211 9.69791308,17.0755736 C9.61189377,17.8357992 9.87995242,18.6110122 10.4831923,19.1075916 C11.1990591,19.6965025 12.1932633,19.7983064 13.0391906,19.278323 C13.1209228,19.8135892 13.3749717,20.3160011 13.8082287,20.6724515 C14.4860825,21.2299257 15.3951014,21.3302899 16.1658953,20.9625805 C16.2219066,21.5517794 16.4925316,22.110708 16.9652209,22.4971332 C17.8682847,23.2351435 19.2113945,23.1757326 20.0375691,22.2199835 C20.7342831,22.33188 21.4084059,22.1176037 21.9002479,21.6873161 C22.3271914,21.3198947 22.5815329,20.8249839 22.6724318,20.3007183 C23.393727,20.9536545 24.4439556,20.9899861 25.2001179,20.33648 C27.4997701,20.3217717 28.8151531,18.7116334 28.8440505,18.6718392 C29.1106753,18.3955532 29.4581763,18.230012 29.8628504,18.2424154 L31.6454943,18.258277 C31.906976,18.92592 32.5442417,19.4023439 33.293015,19.4089885 L37.4561508,19.4459034 L37.4601516,19.4459034 C37.5773216,19.4459034 37.689056,19.3997598 37.7727855,19.3167013 C37.8568003,19.2330668 37.9050992,19.1188595 37.9056699,18.9994619 L37.9999891,5.07811169 C38.0016926,4.83066368 37.8039362,4.62820756 37.5587468,4.62590407 L33.3961963,4.58898916 C32.7254827,4.60023639 32.1199529,4.92756531 31.7904488,5.59145041 L29.7009067,5.57270428 C29.0336242,5.56693633 28.4495371,5.13924204 28.2809076,4.53214684 C27.4673162,1.60058631 23.9402903,0.596131658 20.9014485,0.731609371 C20.7688494,0.737377252 20.6379622,0.754104578 20.5065117,0.76852428 C18.9833597,-0.151764385 15.929301,-0.0692964798 12.4188819,0.124241002 C11.4529753,0.122510652 10.5262083,0.489351594 9.82630462,1.18812866 C9.37506536,1.63744954 9.04526858,2.20387928 8.87298121,2.82707676 C8.7883958,3.13595118 8.47404269,3.36003944 8.13028002,3.36003944 L6.47676028,3.34561974 C6.47075904,2.35349466 5.68116576,1.54343391 4.70355386,1.53479583 L0.540418096,1.49788092 L0.536417298,1.49788092 C0.419247259,1.49788092 0.307512868,1.54402455 0.223783404,1.6270831 C0.139768623,1.71071751 0.0914696351,1.82492486 0.0908990018,1.94432244 L1.09240271e-05,15.2307362 C-0.00169261687,15.4781843 0.196063794,15.6806404 0.44125322,15.6829439 L0.441074714,15.682578 Z M8.39701985,15.9236766 C7.82575738,15.4532995 7.7546038,14.5555363 8.23812774,13.9230362 L9.49008258,12.2851956 C9.95560962,11.6755237 10.8040755,11.5116806 11.3801957,11.9229717 C12.0303299,12.3875828 12.1432348,13.2925887 11.6759739,13.9042687 L10.3016987,15.7012864 C9.86874899,16.2674135 9.00972639,16.4283403 8.39702717,15.9236397 L8.39701985,15.9236766 Z M11.0461484,18.411077 C10.4743153,17.9406998 10.4031544,17.042346 10.8872563,16.4093292 L13.6344167,12.8152937 C14.1165141,12.1851414 15.1121375,12.0467253 15.7288604,12.7818399 C16.0852209,13.2063614 16.1303741,13.8240954 15.8671731,14.3322661 C15.8217354,14.3922528 12.7545148,18.4468017 12.9502859,18.1878806 C12.5059089,18.7692904 11.6505588,18.9085851 11.0461996,18.4110976 L11.0461484,18.411077 Z M14.3711116,19.9758999 C13.8547177,19.5510906 13.7512648,18.7790448 14.0916257,18.1667741 C16.7710417,14.6633278 16.4578518,15.0878493 16.5964132,14.8571311 C17.0642228,14.2552483 17.9046998,14.0960195 18.4776742,14.504136 C19.1175224,14.9603821 19.2489802,15.8636382 18.7728818,16.4854329 C18.7263006,16.5465729 16.2291741,19.8144194 16.2754832,19.752993 C15.8576845,20.2995034 14.999752,20.4932845 14.3711043,19.9759221 L14.3711116,19.9758999 Z M17.5257627,21.7980198 C16.9653569,21.3406219 16.8842026,20.4710765 17.3322961,19.840939 L18.9795243,17.6857729 C19.3930359,17.3019169 19.9860336,17.1943468 20.4723888,17.4363093 C21.2828344,17.8420853 21.4723139,18.8540633 20.9676326,19.5251763 L19.4332875,21.5644297 C18.9763346,22.170063 18.1190019,22.2831186 17.5257627,21.7980346 L17.5257627,21.7980198 Z M21.3196695,21.0058259 C21.1573463,21.1477194 20.9610265,21.2400067 20.7555546,21.2942199 L21.6774932,20.0687926 C21.7363628,19.9903484 21.7775149,19.9029635 21.8255213,19.8190411 C21.8426681,20.2574056 21.6743474,20.7004215 21.3196988,21.0057816 L21.3196695,21.0058259 Z M33.3805165,5.48753671 L33.3879465,5.48753671 L37.1064272,5.52041387 L37.01784,18.5432552 L33.3010419,18.5103781 C32.8046495,18.5063405 32.4039771,18.0890313 32.4073936,17.5805654 L32.4840048,6.39903963 C32.4874341,5.89780162 32.8823727,5.48738905 33.3804843,5.48738905 L33.3805165,5.48753671 Z M20.9399789,1.62904284 C23.5525284,1.51195613 26.7452217,2.32956228 27.4236169,4.77434068 C27.6991011,5.76439853 28.6324085,6.4626071 29.6934938,6.47124519 L31.5930443,6.48826075 L31.5798985,8.4061379 L31.5181713,17.3580032 L29.8704311,17.3432948 C29.2431588,17.33695 28.6418868,17.5936222 28.178357,18.0758268 C28.1689262,18.0879394 27.3442082,19.1238411 25.8458568,19.3799567 C25.9207268,19.1385701 25.9487317,18.8873716 25.9295863,18.6361952 C26.5594337,18.7152152 27.0963851,18.5121832 27.5041684,18.1156359 C27.9434024,17.6890989 28.1357278,17.108228 28.0914305,16.5401076 C28.7278476,16.6182638 29.2588146,16.4114813 29.660599,16.0201242 L29.7446138,15.9393691 C30.4936065,15.2120273 30.5476704,14.0194986 29.8820705,13.2405202 L25.453444,7.49707727 C25.6086197,7.38748429 25.7603642,7.26953378 25.90382,7.13485342 C26.0835695,6.96584959 26.0941481,6.68149405 25.9269679,6.49951094 C25.7589311,6.3175352 25.4777332,6.30830648 25.2974058,6.47615044 C24.5598256,7.1677291 23.609648,7.44051551 22.6934158,7.22567074 C21.741775,7.00216574 20.9696642,6.27481653 20.5740983,5.23027229 C20.5200871,5.08636321 20.3960607,4.98052078 20.2465987,4.94994786 C20.0999971,4.92081978 19.9428242,4.96811664 19.8373668,5.07972591 L17.1110565,7.94986003 C16.3011961,8.80296356 15.1426642,9.19514755 14.0901384,8.97107406 C13.6854862,8.88571202 13.3236608,8.7322789 12.9839145,8.50184866 C12.8250224,8.39427861 12.7861608,8.23623112 12.7781573,8.15202084 C12.7630114,8.00580088 12.8118788,7.8618918 12.912183,7.75807232 L17.1247736,3.40875782 C18.1764215,2.32146611 19.5310172,1.68963054 20.939823,1.62879477 L20.9399789,1.62904284 Z M9.73215547,3.06724766 C9.86275734,2.59571877 10.1113779,2.16718837 10.45288,1.82742355 C10.9815644,1.29908262 11.6814242,1.01182557 12.4381718,1.02223557 C14.5369318,0.906588547 17.2357347,0.760080659 18.9583889,1.14076934 C18.0499114,1.48684661 17.2051546,2.03913055 16.4876198,2.7806034 L12.2744439,7.13050854 C11.9892443,7.42553987 11.8494977,7.83217973 11.8917904,8.24460047 C11.9335132,8.65470295 12.1509896,9.02040419 12.4873413,9.248243 C12.9182865,9.54067552 13.3958188,9.74341958 13.9073404,9.85157288 C15.259595,10.1370875 16.7321947,9.64738914 17.7532625,8.5719545 L20.0308942,6.1750695 C20.5824405,7.16859734 21.452649,7.85728187 22.4917137,8.10128942 C23.2258554,8.27317261 23.971995,8.20799565 24.6601934,7.93199765 L29.1934361,13.8101062 C29.564655,14.2450081 29.5355088,14.895626 29.1285653,15.2910585 L29.0439799,15.3723894 C28.6293197,15.7744149 27.9531924,15.7692246 27.549067,15.312114 L21.8278828,8.84078289 C21.6638477,8.65476866 21.3820719,8.63890264 21.1994692,8.80444459 C21.015718,8.96940993 20.9999963,9.25376547 21.1634616,9.43862795 L26.9403922,15.9731574 C27.319044,16.4014294 27.2947555,17.0713759 26.886381,17.4682111 C26.431718,17.9100383 25.7732803,17.8252448 25.4043439,17.4226441 L20.0257592,11.5546503 C19.9837503,11.5090833 19.9343116,11.4744785 19.8814402,11.4505355 C19.7225481,11.377571 19.5296521,11.40295 19.3947704,11.5289797 C19.2138724,11.6974002 19.2027304,11.9817632 19.3699084,12.1637463 L24.7693432,18.0551442 C25.1648506,18.4845679 25.1474243,19.1600074 24.723048,19.566662 L24.6724657,19.6168434 C24.2109404,20.0655884 23.5273949,19.9730132 23.1589706,19.5308981 C23.1089605,19.4709114 22.0184356,18.1650465 22.0878626,18.2486957 C21.9409758,17.4904635 21.4777386,16.9347464 20.8687558,16.6307891 C20.8053138,16.5990651 20.7387319,16.5794545 20.6732846,16.5546558 L19.94313,15.6796248 C19.9554184,14.8617381 19.5781954,14.1877457 18.9917819,13.7701642 C18.3839404,13.3364141 17.6017777,13.2781549 16.9178956,13.5426207 C16.8958911,13.0572488 16.7298573,12.5834238 16.4089346,12.2012806 C15.4507096,11.0580997 13.7795587,11.1546691 12.9299004,12.2661704 L12.7672918,12.479007 C12.6332662,11.9581598 12.3360613,11.5036413 11.8942229,11.1889786 C10.9177083,10.4919218 9.55228527,10.7335963 8.78529558,11.7360723 L7.77454304,13.0583643 L6.41365577,13.0462518 L6.44480503,8.40250399 L6.47309674,4.24440872 L8.12632385,4.25854048 C8.88021823,4.25882886 9.54003128,3.76855414 9.73207134,3.06744405 L9.73215547,3.06724766 Z M0.97951845,2.40076376 L4.69631654,2.43364092 C5.19213104,2.43767845 5.5927961,2.85498768 5.58937963,3.36345363 L5.58649989,3.78537626 C5.58649989,3.78652985 5.58592831,3.78739499 5.58592831,3.7882602 L5.55420768,8.50930783 L5.51734257,13.9089991 C5.51362753,14.4425377 5.06839316,14.8399193 4.61347405,14.8206497 L0.894408053,14.7877726 L0.97951845,2.40076376 Z" id="Shape" fill="#000000" fill-rule="nonzero"></path>
    </g>
</svg>